<svg xmlns="http://www.w3.org/2000/svg" width="22.341" height="19.342" viewBox="0 0 22.341 19.342">
  <path id="bag" d="M22.32,35.005l-3.079-17.93a.681.681,0,0,0-.671-.566H3.587a.681.681,0,0,0-.672.572L.009,35.063a.681.681,0,0,0,.672.79H21.659a.682.682,0,0,0,.661-.847ZM15.712,21.2a4.706,4.706,0,0,1-4.542,2.624A4.706,4.706,0,0,1,6.627,21.2a6.291,6.291,0,0,1-.634-2.552.681.681,0,0,1,1.362,0,4.962,4.962,0,0,0,.509,1.983,3.409,3.409,0,0,0,3.3,1.833,3.7,3.7,0,0,0,3.814-3.814.681.681,0,1,1,1.362,0A6.292,6.292,0,0,1,15.712,21.2Z" transform="translate(0 -16.51)" fill="#000" opacity="0.99"/>
</svg>
