<svg xmlns="http://www.w3.org/2000/svg" width="16.319" height="21.759" viewBox="0 0 16.319 21.759">
  <g id="pin" transform="translate(-64 0)" opacity="0.99">
    <g id="Group_73" data-name="Group 73" transform="translate(64)">
      <path id="Subtraction_2" data-name="Subtraction 2" d="M-526.84-2268.241a.457.457,0,0,1-.311-.123c-.32-.3-7.848-7.454-7.848-13.476A8.169,8.169,0,0,1-526.84-2290a8.169,8.169,0,0,1,8.159,8.159c0,6.023-7.528,13.174-7.849,13.476A.452.452,0,0,1-526.84-2268.241ZM-527-2285a3,3,0,0,0-3,3,3,3,0,0,0,3,3,3,3,0,0,0,3-3A3,3,0,0,0-527-2285Z" transform="translate(535 2290)" fill="#000"/>
    </g>
  </g>
</svg>
