<svg xmlns="http://www.w3.org/2000/svg" width="25.209" height="20.574" viewBox="0 0 25.209 20.574">
  <g id="truck" transform="translate(0)" opacity="0.99">
    <path id="Path_698" data-name="Path 698" d="M365.386,79.982H372.6v-.011a3.364,3.364,0,0,0-.654-1.985l-2.8-3.667a3.1,3.1,0,0,0-2.452-1.214h-1.317Zm0,0" transform="translate(-347.396 -69.506)" fill="#000"/>
    <path id="Path_699" data-name="Path 699" d="M372.609,242.781v5.79a.892.892,0,0,1-.892.891h-.194a4.066,4.066,0,0,0-6.132-4.2v-2.484Zm0,0" transform="translate(-347.4 -230.827)" fill="#000"/>
    <path id="Path_700" data-name="Path 700" d="M356.926,309.094a2.678,2.678,0,1,0,2.681,2.678A2.682,2.682,0,0,0,356.926,309.094Zm0,0" transform="translate(-336.804 -293.875)" fill="#000"/>
    <path id="Path_701" data-name="Path 701" d="M66.684,309.094a2.678,2.678,0,1,0,2.681,2.678A2.682,2.682,0,0,0,66.684,309.094Zm0,0" transform="translate(-60.852 -293.875)" fill="#000"/>
    <path id="Path_702" data-name="Path 702" d="M16.513,1.638A1.6,1.6,0,0,0,16.029.483,1.605,1.605,0,0,0,14.874,0H1.639A1.608,1.608,0,0,0,.483.484,1.6,1.6,0,0,0,0,1.639V9.847H2.378a.739.739,0,0,1,0,1.477H0v.669H2.363a.739.739,0,0,1,0,1.477H0v4.273a.892.892,0,0,0,.891.891h.94a4.068,4.068,0,1,1,8,0h6.29a4.059,4.059,0,0,1,.391-2.612Zm0,0" transform="translate(0)" fill="#000"/>
  </g>
</svg>
