<svg xmlns="http://www.w3.org/2000/svg" xmlns:xlink="http://www.w3.org/1999/xlink" width="83.183" height="80.5" viewBox="0 0 83.183 80.5"><defs><style>.a{fill:#aab2bd;}.b{fill:#e6e9ed;}.c{fill:#656d78;}.d{fill:#5d9cec;}.e{fill:#ccd1d9;}.f{fill:#da4453;}.g{fill:url(#a);}.h{fill:#ed5565;}</style><linearGradient id="a" x1="0.5" x2="0.5" y2="1" gradientUnits="objectBoundingBox"><stop offset="0" stop-color="#e30613"/><stop offset="0.481" stop-color="#cf2522"/><stop offset="1" stop-color="#e32913"/></linearGradient></defs><g transform="translate(-1 -2)"><path class="a" d="M20.683,12A2.683,2.683,0,1,1,18,14.684,2.674,2.674,0,0,1,20.683,12Z" transform="translate(5.808 3.417)"/><path class="b" d="M14.025,52A4.025,4.025,0,1,1,10,56.025,4.02,4.02,0,0,1,14.025,52Z" transform="translate(3.075 17.083)"/><path class="c" d="M15.392,48A9.392,9.392,0,1,1,6,57.392,9.385,9.385,0,0,1,15.392,48Zm4.025,9.392a4.025,4.025,0,1,0-4.025,4.025A4.02,4.02,0,0,0,19.417,57.392Z" transform="translate(1.708 15.717)"/><path class="c" d="M53.392,48A9.392,9.392,0,1,1,44,57.392,9.385,9.385,0,0,1,53.392,48Zm4.025,9.392a4.025,4.025,0,1,0-4.025,4.025A4.02,4.02,0,0,0,57.417,57.392Z" transform="translate(14.692 15.717)"/><path class="b" d="M52.025,52A4.025,4.025,0,1,1,48,56.025,4.02,4.02,0,0,1,52.025,52Z" transform="translate(16.058 17.083)"/><path class="d" d="M45,28h5.367V38.733H45Z" transform="translate(15.033 8.883)"/><path class="d" d="M54.474,28l6.6,10.733H49V28Z" transform="translate(16.4 8.883)"/><path class="e" d="M48.617,41.83H3V37.818a22.808,22.808,0,0,1,45.617,0Z" transform="translate(0.683 4.445)"/><path class="a" d="M20.684,15.01A23.039,23.039,0,0,0,18,15.182,22.8,22.8,0,0,1,38.12,37.818V41.83h5.372V37.818A22.806,22.806,0,0,0,20.684,15.01Z" transform="translate(5.808 4.445)"/><path class="f" d="M56.008,39v5.367H1V40.34L2.342,39H56.008Z" transform="translate(0 12.642)"/><path class="e" d="M48.617,35v1.342a4.02,4.02,0,0,1-4.025,4.025H7.025A4.02,4.02,0,0,1,3,36.342V35Z" transform="translate(0.683 11.275)"/><path class="g" d="M70.874,29.025H60.033V39.758H77.475ZM57.35,25h16.1L84.183,42.442V63.907L82.842,65.25H77.475a9.392,9.392,0,1,0-18.783,0h-32.2a9.392,9.392,0,1,0-18.783,0H2.342L1,63.907v-16.1H56.008V26.342Z" transform="translate(0 7.858)"/><path class="h" d="M49.342,40.417A1.34,1.34,0,0,1,48,39.076V28.34a1.342,1.342,0,0,1,2.683,0V39.076A1.34,1.34,0,0,1,49.342,40.417Z" transform="translate(16.058 8.541)"/><path class="f" d="M46.683,43.683H45.342a1.342,1.342,0,1,1,0-2.683h1.342a1.342,1.342,0,0,1,0,2.683Z" transform="translate(14.692 13.325)"/><g transform="translate(1.001 2)"><path class="b" d="M50.64,36.684H2.343a1.342,1.342,0,0,1,0-2.683h48.3a1.342,1.342,0,1,1,0,2.683Z" transform="translate(-1.001 8.934)"/><path class="b" d="M10.648,16.76A1.342,1.342,0,0,1,9.7,14.47c.292-.306,1.707-1.994-.1-4.252a5.735,5.735,0,0,1,.1-7.825A1.341,1.341,0,0,1,11.6,4.282c-.306.319-1.711,2,.091,4.258a5.737,5.737,0,0,1-.1,7.826,1.338,1.338,0,0,1-.949.393Z" transform="translate(1.428 -2)"/><path class="b" d="M30.644,16.76a1.342,1.342,0,0,1-.949-2.29c.292-.306,1.707-1.994-.1-4.252a5.735,5.735,0,0,1,.1-7.825A1.341,1.341,0,0,1,31.6,4.282c-.306.319-1.711,2,.091,4.258a5.737,5.737,0,0,1-.1,7.826,1.338,1.338,0,0,1-.949.393Z" transform="translate(8.26 -2)"/><path class="b" d="M20.649,10.721a1.339,1.339,0,0,1-1.049-.5,5.735,5.735,0,0,1,.1-7.825A1.341,1.341,0,0,1,21.6,4.282c-.306.319-1.711,2,.091,4.258a1.342,1.342,0,0,1-1.046,2.18Z" transform="translate(4.844 -2)"/></g><circle class="h" cx="1.5" cy="1.5" r="1.5" transform="translate(1 70.5)"/><circle class="h" cx="1.5" cy="1.5" r="1.5" transform="translate(56 32.5)"/><circle class="h" cx="1.5" cy="1.5" r="1.5" transform="translate(81 70.5)"/><circle class="f" cx="1.5" cy="1.5" r="1.5" transform="translate(1 51.5)"/></g></svg>