<svg xmlns="http://www.w3.org/2000/svg" width="24.894" height="17.235" viewBox="0 0 24.894 17.235">
  <g id="Icon_ionic-ios-mail" data-name="Icon ionic-ios-mail" transform="translate(-3.375 -7.875)">
    <path id="Path_750" data-name="Path 750" d="M28.066,10.351l-6.439,6.559a.116.116,0,0,0,0,.168l4.506,4.8a.777.777,0,0,1,0,1.1.78.78,0,0,1-1.1,0L20.544,18.2a.123.123,0,0,0-.174,0l-1.1,1.113a4.818,4.818,0,0,1-3.435,1.448,4.915,4.915,0,0,1-3.507-1.49L11.28,18.2a.123.123,0,0,0-.174,0L6.618,22.977a.78.78,0,0,1-1.1,0,.777.777,0,0,1,0-1.1l4.506-4.8a.127.127,0,0,0,0-.168L3.578,10.351a.118.118,0,0,0-.2.084V23.558A1.921,1.921,0,0,0,5.29,25.473H26.354a1.921,1.921,0,0,0,1.915-1.915V10.434A.12.12,0,0,0,28.066,10.351Z" transform="translate(0 -0.363)" fill="#df2817"/>
    <path id="Path_751" data-name="Path 751" d="M15.949,18.832a3.253,3.253,0,0,0,2.34-.981l9.389-9.557a1.881,1.881,0,0,0-1.185-.419H5.411a1.868,1.868,0,0,0-1.185.419l9.389,9.557A3.254,3.254,0,0,0,15.949,18.832Z" transform="translate(-0.127 0)" fill="#df2817"/>
  </g>
</svg>
