<svg xmlns="http://www.w3.org/2000/svg" width="72.247" height="54.876" viewBox="0 0 72.247 54.876">
  <g id="sushi-and-chopsticks" transform="translate(0.001 -46.952)" opacity="0.34">
    <g id="Group_61" data-name="Group 61" transform="translate(-0.001 46.952)">
      <g id="Layer_5_42_" transform="translate(0 0)">
        <g id="Group_60" data-name="Group 60">
          <path id="Path_685" data-name="Path 685" d="M3.066,286.736a1.289,1.289,0,0,0,1.273,1.314l69.026.808c.714.008,1.308-.394,1.318-.894s-.566-.927-1.28-.948l-69-2.061a1.289,1.289,0,0,0-1.326,1.26Z" transform="translate(-2.498 -240.926)" fill="#adadb7"/>
          <g id="Group_59" data-name="Group 59" transform="translate(0 30.896)">
            <path id="Path_686" data-name="Path 686" d="M278.032,314.225a9.873,9.873,0,0,1,2.531.431l9.254,3.123c.677.228,1.1.8.948,1.28s-.841.687-1.522.471l-15.686-4.979c-.681-.216-.654-.386.061-.378Z" transform="translate(-222.549 -295.636)" fill="#adadb7"/>
            <path id="Path_687" data-name="Path 687" d="M37.458,226.047c.677.229.647.4-.068.377l-6.123-.183a11.209,11.209,0,0,1-2.538-.432L.9,216.975a1.289,1.289,0,0,1-.834-1.628l.162-.495a1.289,1.289,0,0,1,1.636-.82Z" transform="translate(0.001 -213.964)" fill="#adadb7"/>
          </g>
          <path id="Path_688" data-name="Path 688" d="M120.729,80.6a.922.922,0,0,1,.046,1.721l-5.415,3.45a2.868,2.868,0,0,1-2.82,0l-5.415-3.45a.922.922,0,0,1,.046-1.721l5.323-3.006a3.3,3.3,0,0,1,2.912,0Z" transform="translate(-86.845 -71.647)" fill="#adadb7"/>
          <path id="Path_689" data-name="Path 689" d="M244.689,110.458a3.184,3.184,0,0,0-1.574-1.819l-11.145-6.293a7.64,7.64,0,0,0-6.835,0l-11.13,6.285a3.309,3.309,0,0,0-2.119,3.077v12.071c0,2.042,2.079,3.284,2.377,3.474l11.337,7.224a6.006,6.006,0,0,0,5.9,0l11.337-7.224a2.746,2.746,0,0,0,.993-1.02,3.292,3.292,0,0,0,1.1-2.454V111.707A3.251,3.251,0,0,0,244.689,110.458Zm-18.815-6.805a6.16,6.16,0,0,1,5.359,0l11.145,6.293a1.2,1.2,0,0,1,.062,2.316L231.1,119.486a5.261,5.261,0,0,1-5.1,0l-11.337-7.224a1.205,1.205,0,0,1,.062-2.317Z" transform="translate(-172.69 -91.441)" fill="#adadb7"/>
          <path id="Path_690" data-name="Path 690" d="M276.185,135.182a.922.922,0,0,1,.046,1.721l-5.415,3.45a2.868,2.868,0,0,1-2.82,0l-5.415-3.45a.922.922,0,0,1,.046-1.721l5.323-3.006a3.3,3.3,0,0,1,2.912,0Z" transform="translate(-213.542 -116.134)" fill="#adadb7"/>
          <path id="Path_691" data-name="Path 691" d="M82.461,66.293a4.582,4.582,0,0,1,2.827-4.207L89.154,59.9a.544.544,0,0,0,.329-.555V57.121a3.266,3.266,0,0,0-.248-1.25,3.186,3.186,0,0,0-1.574-1.819L76.517,47.759a7.64,7.64,0,0,0-6.835,0L58.553,54.044a3.308,3.308,0,0,0-2.119,3.077V69.192c0,2,2.079,3.284,2.376,3.474l11.337,7.224a6,6,0,0,0,5.9,0l6.168-3.93a.615.615,0,0,0,.241-.564C82.461,73.12,82.461,66.293,82.461,66.293ZM73.1,65.558A4.871,4.871,0,0,1,70.55,64.9L59.213,57.675a1.205,1.205,0,0,1,.062-2.317L70.42,49.066a6.162,6.162,0,0,1,5.359,0l11.145,6.293a1.205,1.205,0,0,1,.062,2.317L75.649,64.9A4.874,4.874,0,0,1,73.1,65.558Z" transform="translate(-45.994 -46.952)" fill="#adadb7"/>
        </g>
      </g>
    </g>
  </g>
</svg>
