<svg xmlns="http://www.w3.org/2000/svg" xmlns:xlink="http://www.w3.org/1999/xlink" width="94.17" height="80.5" viewBox="0 0 94.17 80.5"><defs><style>.a{fill:#a0d468;}.b{fill:url(#a);}.c{fill:#8cc152;}.d{fill:#e6e9ed;}.e{fill:#81b53e;}.f{fill:#aab2bd;}.g{fill:#ccd1d9;}</style><linearGradient id="a" x1="0.5" x2="0.5" y2="1" gradientUnits="objectBoundingBox"><stop offset="0" stop-color="#e30613"/><stop offset="0.481" stop-color="#cf2522"/><stop offset="1" stop-color="#e32913"/></linearGradient></defs><g transform="translate(-1 -5.5)"><path class="a" d="M91.114,56.208l-4.04-6.075L79.981,39.5H16.189l-4.055,6.075L1,62.283H95.17Z" transform="translate(0 17.642)"/><path class="b" d="M36.593,64.736c-1.823-1.855-4.254-4.464-6.791-7.594C23.683,49.562,17,38.854,17,28.283a22.783,22.783,0,0,1,45.566,0c0,10.571-6.683,21.279-12.8,28.858-2.537,3.13-4.968,5.74-6.791,7.594h-.015c-1.914,1.929-3.174,3.038-3.174,3.038s-1.259-1.109-3.188-3.038Z" transform="translate(8.302 0)"/><path class="c" d="M65.519,52.575H56.405L50.33,46.5H61.479Z" transform="translate(25.596 21.274)"/><path class="c" d="M47.424,50.575,54,44.5l8.263,13.67H26.205L20.13,52.094Z" transform="translate(9.926 20.236)"/><g transform="translate(1 63.217)"><path class="d" d="M64.528,50.5l4.055,6.075H55.141L52.24,50.5Z" transform="translate(25.587 -39.868)"/><path class="d" d="M38.159,47.538s1.261-1.109,3.174-3.038H54l2.187,7.594H20.13L22.317,44.5H34.969C36.9,46.429,38.159,47.538,38.159,47.538Z" transform="translate(8.926 -42.981)"/><path class="d" d="M22.4,43.5,14.442,60.208H1L12.133,43.5Z" transform="translate(-1 -43.5)"/></g><path class="c" d="M23.884,49.575,18.819,60.208H9.85L17.809,43.5Z" transform="translate(4.592 19.717)"/><path class="e" d="M95.17,54.5v6.075H1V54.5H95.17Z" transform="translate(0 25.425)"/><path class="d" d="M63.206,50.132H52.058L47,39.5h9.113Z" transform="translate(23.868 17.642)"/><circle class="f" cx="2.278" cy="2.278" r="2.278" transform="translate(45.802 13.096)"/><path class="g" d="M37.186,12.5A15.193,15.193,0,0,1,52.374,27.689v1.519H22V27.689A15.2,15.2,0,0,1,37.186,12.5Z" transform="translate(10.895 3.632)"/><path class="f" d="M32.776,12.5a15.219,15.219,0,0,0-2.28.19,15.184,15.184,0,0,1,12.907,15v1.519h4.561V27.689A15.193,15.193,0,0,0,32.776,12.5Z" transform="translate(15.305 3.632)"/><path class="g" d="M52.374,25.019a3.027,3.027,0,0,1-3.038,3.038h-24.3A3.037,3.037,0,0,1,22,25.019V23.5H52.374Z" transform="translate(10.895 9.34)"/><path class="d" d="M52.894,25.54H22.52a1.519,1.519,0,0,1,0-3.038H52.894a1.519,1.519,0,1,1,0,3.038Z" transform="translate(10.378 8.822)"/></g></svg>