<svg xmlns="http://www.w3.org/2000/svg" width="27.726" height="15.517" viewBox="0 0 27.726 15.517">
  <g id="japanese-food" transform="translate(0 -77.038)">
    <g id="Group_72" data-name="Group 72" transform="translate(0 77.038)">
      <g id="Layer_5_24_" transform="translate(0 0)">
        <g id="Group_71" data-name="Group 71">
          <path id="Path_692" data-name="Path 692" d="M39.561,222.988h0a6.2,6.2,0,0,1-.648-.037.217.217,0,0,0-.221.081,3.979,3.979,0,0,1-3.548,2.262H20.038a4.025,4.025,0,0,1-3.562-2.287.166.166,0,0,0-.168-.06,6.328,6.328,0,0,1-.688.041q-.211,0-.4-.019c-.14-.014-.309,0-.309.1a4.626,4.626,0,0,0,4.4,3.827H35.873a4.685,4.685,0,0,0,4.447-3.836c.024-.129-.1-.126-.17-.115A3.943,3.943,0,0,1,39.561,222.988Z" transform="translate(-13.728 -211.38)" fill="#000"/>
          <g id="Group_70" data-name="Group 70">
            <path id="Path_693" data-name="Path 693" d="M5.04,102.432c-.07-.122-.185-.065-.251-.03C1.856,103.943,0,106.218,0,108.755c0,3.248,3.041,1.95,7.49.878a.175.175,0,0,0,.122-.239Z" transform="translate(0 -100.352)" fill="#000"/>
            <path id="Path_694" data-name="Path 694" d="M189.025,77.633v8.142a.108.108,0,0,0,.113.123,28.945,28.945,0,0,1,4.831.764c.068.016.2.038.259-.075l3.082-6.71a.181.181,0,0,0-.084-.24,19.024,19.024,0,0,0-8.015-2.144C189.149,77.488,189.025,77.491,189.025,77.633Z" transform="translate(-174.047 -77.455)" fill="#000"/>
            <path id="Path_695" data-name="Path 695" d="M83.433,77.2c0-.131-.16-.158-.2-.158a20.59,20.59,0,0,0-7.64,1.436.2.2,0,0,0-.12.245l2.663,7.206a.18.18,0,0,0,.231.08,24.951,24.951,0,0,1,4.932-.569c.032,0,.132,0,.132-.089V77.2Z" transform="translate(-69.485 -77.038)" fill="#000"/>
            <path id="Path_696" data-name="Path 696" d="M270.137,113.762c-.844,1.577-2.95,6.418-2.95,6.418-.033.073.044.1.084.115,3.884.993,6.463,1.858,6.463-1.134,0-2.093-1.263-4.006-3.35-5.477A.177.177,0,0,0,270.137,113.762Z" transform="translate(-246.009 -110.758)" fill="#000"/>
          </g>
        </g>
      </g>
    </g>
  </g>
</svg>
