<svg xmlns="http://www.w3.org/2000/svg" xmlns:xlink="http://www.w3.org/1999/xlink" width="79.913" height="67.532" viewBox="0 0 79.913 67.532"><defs><style>.a{fill:url(#a);}.b{fill:#aab2bd;}.c{fill:#ccd1d9;}.d{fill:#e6e9ed;}.e{fill:#656d78;}.f{fill:#545c66;}</style><linearGradient id="a" x1="0.5" x2="0.5" y2="1" gradientUnits="objectBoundingBox"><stop offset="0" stop-color="#e30613"/><stop offset="0.481" stop-color="#cf2522"/><stop offset="1" stop-color="#e32913"/></linearGradient></defs><g transform="translate(-2 -11)"><path class="a" d="M68.567,11H3.548A1.553,1.553,0,0,0,2,12.548V65.183a1.553,1.553,0,0,0,1.548,1.548H9.74v6.192l12.385-6.192H68.567a1.553,1.553,0,0,0,1.548-1.548V12.548A1.553,1.553,0,0,0,68.567,11Z" transform="translate(0 0)"/><path class="b" d="M24.822,17A2.322,2.322,0,1,1,22.5,19.322,2.319,2.319,0,0,1,24.822,17Z" transform="translate(11.236 3.288)"/><path class="c" d="M11.548,36H47.773a24.757,24.757,0,0,0-3.468,4.644H13.1a3.105,3.105,0,0,1-3.1-3.1V36Z" transform="translate(4.385 13.702)"/><path class="c" d="M11.017,40.125a20.116,20.116,0,1,1,40.233,0v1.221a26.659,26.659,0,0,0-4.025,3.423H11V40.125Z" transform="translate(4.933 4.933)"/><path class="b" d="M44.672,40.125A20.119,20.119,0,0,0,24.565,20c-.539,0-1.07.029-1.595.076a20.107,20.107,0,0,1,18.6,20.049h.017v4.644h3.1V40.125Z" transform="translate(11.493 4.933)"/><path class="d" d="M51.426,38.1H10.552a1.548,1.548,0,1,1,0-3.1H51.426a1.548,1.548,0,1,1,0,3.1Z" transform="translate(3.839 13.154)"/><path class="e" d="M33.239,48.29A14.041,14.041,0,1,0,47.28,34.249,14.047,14.047,0,0,0,33.239,48.29ZM47.28,65.56A17.271,17.271,0,0,1,30.011,48.29v-.011a17.084,17.084,0,0,1,2.321-8.64,17.273,17.273,0,0,1,2.419-3.24,18.547,18.547,0,0,1,2.808-2.388,17.274,17.274,0,1,1,9.72,31.55Z" transform="translate(17.352 12.972)"/><path class="d" d="M47.041,34.01A14.041,14.041,0,1,1,33,48.051,14.039,14.039,0,0,1,47.041,34.01Z" transform="translate(17.591 13.211)"/><path class="f" d="M52.97,55.039a1.077,1.077,0,0,1-.764-.316l-6.877-6.878a1.08,1.08,0,0,1,1.527-1.527L53.733,53.2a1.08,1.08,0,0,1-.764,1.844Z" transform="translate(18.553 14.171)"/><path class="e" d="M46.079,48.888A1.079,1.079,0,0,1,45,47.808V38.081a1.08,1.08,0,1,1,2.16,0v9.727A1.079,1.079,0,0,1,46.079,48.888Z" transform="translate(18.552 13.451)"/></g></svg>