<svg xmlns="http://www.w3.org/2000/svg" width="82.028" height="76.822" viewBox="0 0 82.028 76.822"><defs><style>.a{fill:#ccd1d9;}.b{fill:#e6e9ed;}.c{fill:#f7c292;}.d{fill:#ffce54;}.e{fill:#87bcf4;}.f{fill:#5d9cec;}.g{fill:#4a89dc;}.h{fill:#965353;}.i{fill:#844747;}.j{fill:#eac6bb;}.k{fill:#d3b1a9;}.l{fill:#ffd2a6;}.m{fill:#ed5565;}.n{fill:#545c66;}.o{fill:#656d78;}</style></defs><g transform="translate(-0.502 -2.501)"><path class="a" d="M60.221,37.312a1.3,1.3,0,0,1-1.3-1.3,3.906,3.906,0,0,0-7.813,0,1.3,1.3,0,1,1-2.6,0,6.511,6.511,0,1,1,13.021,0A1.3,1.3,0,0,1,60.221,37.312Z" transform="translate(14.502 8.157)"/><path class="a" d="M49.8,40.01a1.3,1.3,0,0,1-1.3-1.3V34.8a1.3,1.3,0,1,1,2.6,0v3.906A1.3,1.3,0,0,1,49.8,40.01Z" transform="translate(14.502 9.365)"/><path class="a" d="M57.8,40.01a1.3,1.3,0,0,1-1.3-1.3V34.8a1.3,1.3,0,0,1,2.6,0v3.906A1.3,1.3,0,0,1,57.8,40.01Z" transform="translate(16.919 9.365)"/><path class="b" d="M55.221,37.312a1.3,1.3,0,0,1-1.3-1.3,3.906,3.906,0,0,0-7.813,0,1.3,1.3,0,0,1-2.6,0,6.511,6.511,0,1,1,13.021,0A1.3,1.3,0,0,1,55.221,37.312Z" transform="translate(12.991 8.157)"/><path class="b" d="M44.8,40.006a1.3,1.3,0,0,1-1.3-1.3V34.8a1.3,1.3,0,1,1,2.6,0v3.9A1.3,1.3,0,0,1,44.8,40.006Z" transform="translate(12.991 9.365)"/><path class="b" d="M52.8,40.006a1.3,1.3,0,0,1-1.3-1.3V34.8a1.3,1.3,0,1,1,2.6,0v3.9A1.3,1.3,0,0,1,52.8,40.006Z" transform="translate(15.408 9.365)"/><path class="c" d="M68.54,36.5H43.8a1.3,1.3,0,0,0-1.3,1.3V67.75a1.3,1.3,0,0,0,1.3,1.3H68.54a1.3,1.3,0,0,0,1.3-1.3V37.8A1.3,1.3,0,0,0,68.54,36.5Z" transform="translate(12.688 10.271)"/><path class="d" d="M67.451,2.5H38.8a1.305,1.305,0,0,0-1.3,1.3V31.148a1.305,1.305,0,0,0,1.3,1.3h2.6v3.906l6.511-3.906H67.451a1.307,1.307,0,0,0,1.3-1.3V3.8a1.307,1.307,0,0,0-1.3-1.3Z" transform="translate(11.178)"/><path class="e" d="M27.127,47.837v.014l-3.906,2.6-3.906-1.316-3.906,1.316-3.906-2.6v-5.82a16.891,16.891,0,0,0,15.625,0Z" transform="translate(3.323 11.943)"/><path class="f" d="M44.774,55.616v7.813a1.307,1.307,0,0,1-1.3,1.3H1.8a1.305,1.305,0,0,1-1.3-1.3V55.616A9.107,9.107,0,0,1,9.617,46.5h5.208l3.906,2.6,3.906-1.316,3.906,1.316,3.906-2.6h5.208A9.109,9.109,0,0,1,44.774,55.616Z" transform="translate(0 13.293)"/><path class="g" d="M28.41,46.5H24.5a9.107,9.107,0,0,1,9.115,9.115v7.813a1.305,1.305,0,0,1-1.3,1.3h3.912a1.307,1.307,0,0,0,1.3-1.3V55.616A9.109,9.109,0,0,0,28.41,46.5Z" transform="translate(7.25 13.293)"/><path class="h" d="M8.408,27.732,4.5,31.638V25.127A15.611,15.611,0,0,1,20.127,9.5H30.544V14.71a7.8,7.8,0,0,1,7.813,7.813v9.115l-3.906-3.906a36.242,36.242,0,0,1-13.021,2.6,36.242,36.242,0,0,1-13.021-2.6Z" transform="translate(1.208 2.115)"/><path class="i" d="M33.221,31.638V22.523a7.8,7.8,0,0,0-7.813-7.813V9.5H21.5V14.71a3.905,3.905,0,0,0,3.906,3.906,3.911,3.911,0,0,1,3.906,3.906v5.208Z" transform="translate(6.344 2.115)"/><path class="j" d="M38.357,27.408v5.208a16.928,16.928,0,0,1-33.855,0V27.408L8.408,23.5a36.242,36.242,0,0,0,13.021,2.6,36.242,36.242,0,0,0,13.021-2.6Z" transform="translate(1.208 6.345)"/><path class="k" d="M30.977,23.5h-.005v9.114A16.921,16.921,0,0,1,16,49.425,16.924,16.924,0,0,0,34.883,32.617V27.408Z" transform="translate(4.682 6.345)"/><path class="g" d="M17.834,54.1a1.3,1.3,0,0,1-.013-2.6h.013a1.3,1.3,0,0,1,0,2.6Z" transform="translate(4.841 14.803)"/><path class="g" d="M17.834,58.1a1.3,1.3,0,0,1-.013-2.6h.013a1.3,1.3,0,0,1,0,2.6Z" transform="translate(4.841 16.012)"/><path class="l" d="M63.544,36.5H38.8a1.3,1.3,0,0,0-1.3,1.3V67.75a1.3,1.3,0,0,0,1.3,1.3h24.74a1.3,1.3,0,0,0,1.3-1.3V37.8A1.3,1.3,0,0,0,63.544,36.5Z" transform="translate(11.178 10.271)"/><path class="m" d="M59.874,13.375a1.16,1.16,0,0,0-.936-.786l-4.445-.646L52.5,7.913a1.2,1.2,0,0,0-2.076,0l-1.986,4.03-4.448.646a1.156,1.156,0,0,0-.641,1.975L46.569,17.7l-.763,4.426a1.159,1.159,0,0,0,1.681,1.221l3.981-2.089,3.973,2.089a1.157,1.157,0,0,0,1.682-1.217L56.367,17.7l3.218-3.138a1.17,1.17,0,0,0,.289-1.19Z" transform="translate(12.84 1.456)"/><g transform="translate(53.889 54.581)"><path class="n" d="M45.3,60.524a1.3,1.3,0,0,1-1.3-1.3V48.805a1.3,1.3,0,1,1,2.6,0V59.222A1.3,1.3,0,0,1,45.3,60.524Z" transform="translate(-40.747 -40.985)"/><path class="n" d="M42.8,50.315a1.3,1.3,0,0,1-1.3-1.3V43.8a1.3,1.3,0,0,1,2.6,0v5.211A1.3,1.3,0,0,1,42.8,50.315Z" transform="translate(-41.502 -42.496)"/><path class="n" d="M47.8,50.315a1.3,1.3,0,0,1-1.3-1.3V43.8a1.3,1.3,0,0,1,2.6,0v5.211A1.3,1.3,0,0,1,47.8,50.315Z" transform="translate(-39.991 -42.496)"/><path class="n" d="M50.8,62.037a1.3,1.3,0,0,1-1.3-1.3V43.8a1.3,1.3,0,0,1,2.6,0V60.734A1.3,1.3,0,0,1,50.8,62.037Z" transform="translate(-39.085 -42.497)"/></g><path class="o" d="M50.8,42.5a1.3,1.3,0,0,0-1.3,1.3v9.116H49.5a1.3,1.3,0,0,0,1.3,1.3h3.906a1.3,1.3,0,0,0,1.3-1.3v-5.2A5.222,5.222,0,0,0,50.8,42.5Z" transform="translate(14.802 12.084)"/><path class="n" d="M45.3,47.706A1.3,1.3,0,0,1,44,46.4V43.8a1.3,1.3,0,0,1,2.6,0v2.6A1.3,1.3,0,0,1,45.3,47.706Z" transform="translate(13.142 12.084)"/><path class="o" d="M49.315,45.5H42.8a1.3,1.3,0,0,0-1.3,1.3v1.3s0,0,0,.007a2.6,2.6,0,0,0,2.6,2.6H48a.113.113,0,0,1,.013,0,2.61,2.61,0,0,0,2.607-2.607V46.8a1.3,1.3,0,0,0-1.3-1.3Z" transform="translate(12.386 12.991)"/></g></svg>